<?xml version="1.0" standalone="no"?>
<!DOCTYPE svg PUBLIC "-//W3C//DTD SVG 20010904//EN"
 "http://www.w3.org/TR/2001/REC-SVG-20010904/DTD/svg10.dtd">
<svg version="1.0" xmlns="http://www.w3.org/2000/svg"
 width="350.000000pt" height="350.000000pt" viewBox="0 0 350.000000 350.000000"
 preserveAspectRatio="xMidYMid meet">
<metadata>
Created by potrace 1.11, written by Peter Selinger 2001-2013
</metadata>
<g transform="translate(0.000000,350.000000) scale(0.100000,-0.100000)"
fill="#000000" stroke="none">
<path d="M1578 2864 c-2 -1 -26 -6 -53 -10 -69 -9 -201 -48 -271 -80 -33 -15
-66 -28 -74 -30 -8 -2 -16 -8 -18 -13 -2 -6 -8 -11 -14 -11 -26 0 -161 -102
-238 -180 -83 -83 -200 -244 -200 -275 0 -8 -4 -15 -8 -15 -5 0 -16 -18 -25
-40 l-15 -40 67 0 67 0 24 43 c33 60 96 151 125 183 14 15 25 31 25 35 0 5 6
9 13 9 7 0 18 9 25 20 32 52 299 220 349 220 7 0 13 4 13 8 0 4 8 8 18 9 10 1
47 9 82 18 34 9 86 18 114 20 28 2 52 4 54 5 3 2 111 2 115 0 1 -1 29 -3 62
-4 69 -4 136 -18 218 -47 55 -20 95 -20 83 -1 -3 5 3 18 12 28 29 31 32 51 11
70 -10 9 -19 14 -19 11 0 -3 -24 3 -53 13 -30 11 -66 21 -80 24 -15 2 -30 7
-35 10 -20 12 -364 31 -374 20z"/>
<path d="M2285 2748 c-125 -36 -147 -216 -35 -282 36 -21 109 -29 128 -14 6 6
12 7 12 4 0 -18 62 40 78 72 33 66 25 122 -25 178 -37 42 -100 59 -158 42z"/>
<path d="M2535 2481 c-3 -11 -21 -33 -40 -49 -32 -28 -32 -31 -17 -48 28 -31
89 -124 108 -164 4 -8 10 -17 13 -20 12 -10 51 -118 74 -202 21 -83 23 -87 37
-67 8 12 30 41 48 66 30 39 33 49 27 84 -8 45 -114 264 -145 296 -11 12 -20
26 -20 30 -1 13 -48 63 -60 63 -6 0 -9 4 -5 9 3 5 1 12 -4 15 -5 4 -12 -2 -16
-13z"/>
<path d="M1985 2030 c-33 -3 -74 -13 -90 -24 -62 -36 -92 -112 -78 -190 8 -41
71 -103 118 -114 22 -6 127 -10 233 -10 199 0 227 -5 215 -40 -4 -9 -11 -20
-16 -24 -6 -3 -108 -6 -228 -6 -120 -1 -225 -4 -233 -9 -19 -10 -86 -99 -86
-112 0 -8 92 -10 288 -9 l287 1 42 29 c87 59 102 158 36 244 -38 51 -74 58
-300 59 -134 0 -206 4 -214 12 -6 6 -9 21 -7 34 3 23 7 24 78 26 188 5 362 5
367 0 3 -3 11 -3 18 0 17 6 95 108 95 123 0 6 -34 10 -87 11 -49 0 -153 1
-233 2 -80 1 -172 0 -205 -3z"/>
<path d="M111 2004 c-18 -23 -20 -40 -20 -257 -1 -128 2 -237 6 -243 5 -7 34
-11 73 -10 l65 1 2 40 c3 85 3 102 0 167 -4 107 -4 107 103 27 52 -38 102 -75
110 -82 9 -7 42 -33 75 -57 33 -25 62 -47 65 -50 39 -43 109 -62 141 -37 32
25 36 54 37 290 l1 237 -69 0 c-38 0 -72 -5 -75 -10 -4 -6 -7 -74 -7 -150 0
-149 -3 -158 -46 -122 -54 46 -63 52 -71 52 -5 0 -11 7 -15 15 -3 8 -12 15
-20 15 -8 0 -16 4 -18 8 -1 4 -58 49 -126 100 -138 103 -173 114 -211 66z"/>
<path d="M1225 1993 c-19 -20 -35 -40 -35 -44 0 -4 -6 -14 -12 -21 -7 -7 -29
-36 -48 -63 -19 -28 -38 -51 -42 -53 -4 -2 -8 -10 -8 -18 0 -8 -4 -14 -10 -14
-5 0 -10 -6 -10 -14 0 -8 -4 -16 -8 -18 -4 -1 -32 -39 -62 -83 -30 -44 -57
-82 -60 -85 -8 -7 -50 -76 -50 -82 0 -3 36 -6 80 -7 85 -2 81 -3 136 64 13 17
24 35 24 42 0 6 3 13 8 15 4 2 27 32 51 68 25 36 48 67 53 68 4 2 8 10 8 18 0
8 5 14 10 14 6 0 10 6 10 14 0 8 7 16 15 20 10 4 24 -8 42 -37 16 -23 30 -44
33 -47 5 -5 65 -91 126 -183 l39 -57 88 1 c48 1 87 3 87 5 0 7 -25 48 -37 62
-7 7 -30 39 -50 70 -21 31 -41 59 -45 60 -5 2 -8 10 -8 17 0 7 -4 15 -8 17 -4
2 -49 62 -99 133 -51 72 -101 140 -113 153 -31 33 -64 28 -105 -15z"/>
<path d="M2970 2023 c-20 -7 -38 -28 -75 -83 -32 -48 -43 -63 -62 -85 -7 -7
-13 -18 -13 -24 0 -6 -3 -11 -8 -11 -4 0 -12 -9 -17 -20 -6 -10 -38 -58 -72
-105 -35 -48 -63 -91 -63 -96 0 -5 -4 -9 -10 -9 -5 0 -10 -6 -10 -14 0 -8 -6
-16 -14 -19 -7 -3 -18 -19 -24 -35 l-10 -29 85 1 c75 1 87 4 97 21 6 11 20 28
30 37 10 10 15 18 10 18 -5 0 -4 4 2 8 10 7 49 61 130 180 22 32 43 52 55 52
10 0 18 -3 17 -7 -2 -8 30 -62 42 -73 4 -3 31 -41 61 -85 109 -161 99 -153
192 -152 59 0 77 4 77 14 0 14 -82 134 -199 293 -31 41 -56 79 -56 83 0 4 -4
11 -10 15 -5 4 -25 30 -44 57 -50 73 -68 84 -111 68z"/>
<path d="M800 1361 c0 -6 -3 -10 -7 -9 -11 2 -80 -28 -86 -39 -3 -4 10 -34 29
-66 19 -32 34 -62 34 -67 0 -6 5 -10 10 -10 6 0 10 -5 10 -11 0 -16 95 -135
155 -194 57 -56 135 -116 210 -161 53 -32 166 -84 194 -89 9 -2 16 -4 16 -5 0
-1 7 -3 15 -6 161 -42 183 -46 305 -49 156 -4 218 5 380 50 97 27 315 144 315
168 0 6 3 8 6 4 9 -8 133 105 189 174 44 53 77 99 71 99 -3 0 3 9 14 20 12 12
18 25 15 30 -4 6 -2 10 3 10 9 0 52 80 52 99 0 11 -6 13 -78 14 -42 0 -42 0
-95 -79 -120 -181 -250 -296 -432 -380 -130 -60 -221 -78 -390 -78 -140 0
-209 4 -245 16 -8 3 -42 13 -75 23 -228 66 -454 260 -575 493 -22 43 -40 62
-40 43z"/>
</g>
</svg>
